<svg version="1.1" xmlns="http://www.w3.org/2000/svg" width="59" height="59" viewBox="0 0 1080 1080"><path d="M0 0 C1.40765625 -0.04350586 1.40765625 -0.04350586 2.84375 -0.08789062 C8.62346277 -0.14050706 13.46190864 0.21243179 17.875 4.3125 C20.48975205 7.47575962 22.68231646 10.84751125 24.875 14.3125 C25.49310547 15.2627002 26.11121094 16.21290039 26.74804688 17.19189453 C28.72484663 20.24188583 30.67713958 23.30645601 32.625 26.375 C34.04661341 28.6043335 35.46848881 30.83349995 36.890625 33.0625 C37.57576172 34.13757813 38.26089844 35.21265625 38.96679688 36.3203125 C48.40359499 51.11783011 58.11245091 65.72852976 67.875 80.3125 C69.36120819 77.34008361 69.12722581 74.56404687 69.24804688 71.24829102 C69.27584732 70.52130005 69.30364777 69.79430908 69.33229065 69.04528809 C69.39214705 67.46461499 69.4498777 65.88386031 69.50575256 64.30304146 C69.59424172 61.8025113 69.68839 59.30225183 69.78405762 56.80198669 C69.98615366 51.493176 70.18102102 46.18411263 70.375 40.875 C70.59977464 34.72746204 70.82748327 28.58006023 71.06251526 22.4329052 C71.1552722 19.96739642 71.24270889 17.50173503 71.32995605 15.036026 C71.38703114 13.52604209 71.44435031 12.01606738 71.50195312 10.50610352 C71.52483902 9.81872604 71.54772491 9.13134857 71.57130432 8.42314148 C71.68863257 5.47597029 71.93515432 3.13203704 72.875 0.3125 C75.52090014 0.28565321 78.16653096 0.26573643 80.8125 0.25 C81.56724609 0.24162109 82.32199219 0.23324219 83.09960938 0.22460938 C85.02494313 0.21597559 86.95035581 0.26025667 88.875 0.3125 C90.51142482 1.94892482 90.00103528 3.80020268 90.00198364 6.05761719 C90.00621338 7.59730164 90.00621338 7.59730164 90.01052856 9.16809082 C90.00749222 10.87152649 90.00749222 10.87152649 90.00439453 12.609375 C90.00702301 14.39208801 90.00702301 14.39208801 90.00970459 16.21081543 C90.0133627 19.47932776 90.01248972 22.74779989 90.0093255 26.01631165 C90.00680147 29.42982063 90.00913956 32.84332685 90.01071167 36.25683594 C90.01253324 41.99023931 90.01012739 47.72362983 90.00537109 53.45703125 C89.99992849 60.09455776 90.00169116 66.73205355 90.0071975 73.36957932 C90.01172899 79.05874266 90.012379 84.74789674 90.00975883 90.43706131 C90.00819626 93.8391902 90.00800175 97.24130464 90.01129532 100.64343262 C90.01382009 104.43418488 90.00998371 108.22487723 90.00439453 112.015625 C90.00641876 113.15124878 90.00844299 114.28687256 90.01052856 115.45690918 C90.00770874 116.48336548 90.00488892 117.50982178 90.00198364 118.56738281 C90.0014181 119.91355682 90.0014181 119.91355682 90.00084114 121.28692627 C89.875 123.3125 89.875 123.3125 88.875 124.3125 C85.9644353 124.49385286 83.10032419 124.59078515 80.1875 124.625 C78.9819043 124.66850586 78.9819043 124.66850586 77.75195312 124.71289062 C72.28073522 124.77104748 69.16534914 124.01151069 64.875 120.3125 C62.78515625 117.90234375 62.78515625 117.90234375 60.9375 115.25 C60.02677734 113.96416016 60.02677734 113.96416016 59.09765625 112.65234375 C56.56324333 108.90349936 54.16393782 105.06730408 51.74194336 101.24536133 C48.74258147 96.5335352 45.68244967 91.86175827 42.625 87.1875 C37.69516079 79.64193965 32.77349149 72.09157984 27.90332031 64.50732422 C23.31349898 57.38564891 18.58293666 50.35634825 13.875 43.3125 C13.62662593 47.92778536 13.37986013 52.54315374 13.13449097 57.15859985 C13.04494662 58.84234654 12.9552051 60.52608276 12.86526489 62.20980835 C12.31547334 72.52236399 11.79673109 82.83558189 11.33203125 93.15234375 C11.28818298 94.11569641 11.24433472 95.07904907 11.19915771 96.07159424 C10.98470684 100.7856253 10.77495434 105.49978302 10.57275391 110.21435547 C10.49532938 111.93067365 10.41770328 113.64698275 10.33984375 115.36328125 C10.30760208 116.15629135 10.27536041 116.94930145 10.24214172 117.76634216 C9.9885748 123.1989252 9.9885748 123.1989252 8.875 124.3125 C7.3862814 124.39919432 5.893555 124.41953494 4.40234375 124.41015625 C3.50322266 124.40693359 2.60410156 124.40371094 1.67773438 124.40039062 C0.25944336 124.38782227 0.25944336 124.38782227 -1.1875 124.375 C-2.13689453 124.37048828 -3.08628906 124.36597656 -4.06445312 124.36132812 C-6.41803065 124.3495011 -8.77148477 124.33302025 -11.125 124.3125 C-11.14832916 108.29256463 -11.16597926 92.27263474 -11.17681217 76.2526865 C-11.18197509 68.8148549 -11.18901771 61.37703383 -11.20043945 53.93920898 C-11.21038641 47.45868658 -11.21685346 40.97817181 -11.21908849 34.49764198 C-11.22039558 31.06419458 -11.2234813 27.630769 -11.23073006 24.19732857 C-11.23874416 20.37056179 -11.23899113 16.54381665 -11.23852539 12.71704102 C-11.24212067 11.57049545 -11.24571594 10.42394989 -11.24942017 9.24266052 C-11.2480455 8.20634491 -11.24667084 7.1700293 -11.24525452 6.10231018 C-11.24617631 5.19618768 -11.2470981 4.29006517 -11.24804783 3.35648441 C-10.94018329 -1.75754578 -3.90620281 0.03927148 0 0 Z " fill="#FF9350" transform="translate(522.125,474.6875)" /><path d="M0 0 C0.77666016 0.12246094 1.55332031 0.24492187 2.35351562 0.37109375 C3.10181641 0.50128906 3.85011719 0.63148438 4.62109375 0.765625 C5.30486084 0.88196289 5.98862793 0.99830078 6.69311523 1.11816406 C9.03862806 1.91092718 10.02434452 2.81615361 11.5625 4.75 C12.51049805 6.78588867 12.51049805 6.78588867 13.32421875 9.16796875 C13.63439941 10.07546875 13.94458008 10.98296875 14.26416016 11.91796875 C14.5894873 12.91441406 14.91481445 13.91085937 15.25 14.9375 C15.59595215 15.99195313 15.9419043 17.04640625 16.29833984 18.1328125 C28.845822 57.36850005 34.58408614 98.27291193 41.11689758 138.82206726 C42.24212586 145.80200384 43.39369849 152.77722767 44.5625 159.75 C59.70779012 164.03537819 73.79930533 165.86650082 89.5390625 166.02905273 C90.96313882 166.0467897 92.387211 166.06486106 93.8112793 166.08323097 C97.76029418 166.13280419 101.7093557 166.17633633 105.6584549 166.21858907 C108.22078555 166.24645575 110.78309202 166.27597888 113.34539795 166.30602837 C165.85826444 166.92102947 218.37385848 167.30080577 270.88863945 167.7127918 C280.87726365 167.79118483 290.86588014 167.87051284 300.85449219 167.95043945 C301.56827522 167.95615072 302.28205825 167.96186199 303.01747108 167.96774632 C306.60190195 167.99643147 310.1863327 168.02513148 313.7707634 168.05383885 C343.03465748 168.28819173 372.29857154 168.51997953 401.5625 168.75 C401.5625 171.72 401.5625 174.69 401.5625 177.75 C357.03446315 177.88736669 312.50644876 177.99307502 267.97824175 178.05639198 C262.71995054 178.06389612 257.46165974 178.07166206 252.20336914 178.07958984 C251.15654877 178.08116371 250.1097284 178.08273757 249.0311862 178.08435912 C232.08655339 178.11045904 215.14204285 178.15776214 198.19748255 178.21291678 C180.80767623 178.26904814 163.4179339 178.30235741 146.02804071 178.31453097 C135.29957026 178.32275909 124.57144544 178.34873616 113.84308139 178.3974988 C106.4838221 178.429242 99.1247412 178.43879436 91.76541843 178.43100826 C87.5208852 178.42716944 83.27695545 178.43300706 79.03252983 178.46523285 C75.14142901 178.49455939 71.25133404 178.49582454 67.36018566 178.47539337 C65.95755626 178.47287056 64.55486256 178.48037517 63.15235855 178.49929909 C53.71669572 178.61914204 47.39851488 177.06051611 39.5625 171.75 C38.53125 171.069375 37.5 170.38875 36.4375 169.6875 C34.2263138 167.4026076 33.8234971 165.88196518 33.5625 162.75 C32.9025 162.75 32.2425 162.75 31.5625 162.75 C22.69877347 140.26568036 18.34013561 117.47577081 15.2109375 93.58203125 C14.51007593 88.264625 13.62036888 83.00776624 12.5625 77.75 C12.34851563 76.64398437 12.13453125 75.53796875 11.9140625 74.3984375 C11.28637378 71.19250047 10.63951337 67.99131067 9.97900391 64.79199219 C9.70159174 63.43192459 9.43041568 62.07056994 9.16552734 60.70800781 C7.24422577 50.83432982 4.64204836 41.26539932 1.5625 31.6875 C1.06423706 30.08853882 1.06423706 30.08853882 0.5559082 28.45727539 C0.2280835 27.46977295 -0.09974121 26.48227051 -0.4375 25.46484375 C-0.72625 24.57917725 -1.015 23.69351074 -1.3125 22.78100586 C-1.68375 22.11077393 -2.055 21.44054199 -2.4375 20.75 C-3.7575 20.42 -5.0775 20.09 -6.4375 19.75 C-6.4375 22.72 -6.4375 25.69 -6.4375 28.75 C-8.4175 29.74 -8.4175 29.74 -10.4375 30.75 C-10.42589844 31.60464844 -10.41429687 32.45929688 -10.40234375 33.33984375 C-10.39332031 34.44457031 -10.38429688 35.54929687 -10.375 36.6875 C-10.36339844 37.78964844 -10.35179687 38.89179688 -10.33984375 40.02734375 C-10.4375 42.75 -10.4375 42.75 -11.4375 43.75 C-13.45714199 43.82244053 -15.47917124 43.83377188 -17.5 43.8125 C-18.60472656 43.80347656 -19.70945312 43.79445313 -20.84765625 43.78515625 C-22.12962891 43.76775391 -22.12962891 43.76775391 -23.4375 43.75 C-23.51828641 41.62561661 -23.57659141 39.5003677 -23.625 37.375 C-23.65980469 36.19164062 -23.69460938 35.00828125 -23.73046875 33.7890625 C-23.63378906 32.78617187 -23.53710938 31.78328125 -23.4375 30.75 C-22.4475 30.09 -21.4575 29.43 -20.4375 28.75 C-20.1106892 26.11572302 -20.1106892 26.11572302 -20.3125 23.1875 C-20.38317363 21.37589916 -20.43167987 19.56296952 -20.4375 17.75 C-19.4375 16.75 -19.4375 16.75 -16.375 16.6875 C-14.9209375 16.7184375 -14.9209375 16.7184375 -13.4375 16.75 C-13.31375 15.80125 -13.19 14.8525 -13.0625 13.875 C-12.60016004 10.69722676 -12.07644933 7.53412387 -11.5 4.375 C-11.34660156 3.52164062 -11.19320313 2.66828125 -11.03515625 1.7890625 C-10.83792969 1.11617188 -10.64070313 0.44328125 -10.4375 -0.25 C-7.09354406 -1.92197797 -3.55878745 -0.62888564 0 0 Z " fill="#FF9350" transform="translate(340.4375,465.25)" /><path d="M0 0 C1.47821732 -0.00956978 1.47821732 -0.00956978 2.98629761 -0.01933289 C4.6001384 -0.02100212 4.6001384 -0.02100212 6.24658203 -0.02270508 C7.35107697 -0.02603348 8.4555719 -0.02936188 9.59353638 -0.03279114 C11.94239891 -0.03786908 14.2912687 -0.0401992 16.64013672 -0.04003906 C20.20438933 -0.04220593 23.76832257 -0.06029773 27.33251953 -0.0793457 C29.61637264 -0.08228352 31.90022722 -0.08426571 34.18408203 -0.08520508 C35.76755936 -0.09598335 35.76755936 -0.09598335 37.38302612 -0.10697937 C50.34540145 -0.06776557 65.0716147 1.98865484 74.91455078 11.27807617 C81.49336937 19.66387693 82.56447774 29.19279657 82.62939453 39.45776367 C82.65001953 40.26149414 82.67064453 41.06522461 82.69189453 41.89331055 C82.74535037 50.19901169 80.90766746 57.04780732 75.44189453 63.45776367 C74.43835938 64.65852539 74.43835938 64.65852539 73.41455078 65.88354492 C72.40714844 67.0030957 72.40714844 67.0030957 71.37939453 68.14526367 C70.73873047 68.88131836 70.09806641 69.61737305 69.43798828 70.37573242 C67.04802475 72.43010335 65.43615484 72.64330416 62.37939453 73.14526367 C64.21021122 76.52163453 66.04416653 79.89628862 67.87939453 83.27026367 C68.4238623 84.27186523 68.96833008 85.2734668 69.52929688 86.30541992 C73.19474946 93.02848078 76.95280858 99.68267135 80.85595703 106.27026367 C84.32912344 112.82475207 84.37939453 116.24818444 84.37939453 124.14526367 C76.78939453 124.14526367 69.19939453 124.14526367 61.37939453 124.14526367 C58.37201619 118.130507 55.71151216 112.7083258 53.37939453 106.52026367 C49.32232358 96.18555848 43.59669935 85.56626977 33.37548828 80.06713867 C29.37771671 78.89868769 25.2558557 79.10495159 21.12158203 79.12182617 C19.50678955 79.12690186 19.50678955 79.12690186 17.859375 79.13208008 C16.63178467 79.13860596 16.63178467 79.13860596 15.37939453 79.14526367 C15.38161514 79.69427841 15.38383575 80.24329315 15.38612366 80.8089447 C15.40817811 86.50234326 15.42330179 92.19572977 15.43432617 97.88916016 C15.43936751 100.01644381 15.44620044 102.14372398 15.45483398 104.27099609 C15.46690832 107.32154193 15.47262467 110.37204213 15.47705078 113.42260742 C15.48221207 114.37989243 15.48737335 115.33717743 15.49269104 116.32347107 C15.49280434 117.6447274 15.49280434 117.6447274 15.49291992 118.99267578 C15.49514053 119.77211044 15.49736115 120.5515451 15.49964905 121.354599 C15.37939453 123.14526367 15.37939453 123.14526367 14.37939453 124.14526367 C12.97590718 124.24386498 11.56758976 124.27605304 10.16064453 124.27807617 C8.88640625 124.28000977 8.88640625 124.28000977 7.58642578 124.28198242 C6.69310547 124.27811523 5.79978516 124.27424805 4.87939453 124.27026367 C3.98607422 124.27413086 3.09275391 124.27799805 2.17236328 124.28198242 C1.32287109 124.28069336 0.47337891 124.2794043 -0.40185547 124.27807617 C-1.18625 124.27694824 -1.97064453 124.27582031 -2.77880859 124.2746582 C-4.62060547 124.14526367 -4.62060547 124.14526367 -5.62060547 123.14526367 C-5.71871681 121.56603638 -5.74692439 119.98241834 -5.74758911 118.40014648 C-5.75040894 117.37369019 -5.75322876 116.34723389 -5.75613403 115.28967285 C-5.7541098 114.15404907 -5.75208557 113.01842529 -5.75 111.84838867 C-5.75262848 110.06567566 -5.75262848 110.06567566 -5.75531006 108.24694824 C-5.75896817 104.97843591 -5.75809518 101.70996379 -5.75493097 98.44145203 C-5.75240694 95.02794304 -5.75474503 91.61443682 -5.75631714 88.20092773 C-5.75813871 82.46752436 -5.75573286 76.73413385 -5.75097656 71.00073242 C-5.74553396 64.36320591 -5.74729663 57.72571012 -5.75280297 51.08818436 C-5.75733446 45.39902101 -5.75798447 39.70986693 -5.7553643 34.02070236 C-5.75380172 30.61857347 -5.75360722 27.21645903 -5.75690079 23.81433105 C-5.75942556 20.02357879 -5.75558918 16.23288644 -5.75 12.44213867 C-5.75202423 11.30651489 -5.75404846 10.17089111 -5.75613403 9.00085449 C-5.75331421 7.97439819 -5.75049438 6.94794189 -5.74758911 5.89038086 C-5.74721209 4.99293152 -5.74683506 4.09548218 -5.74644661 3.1708374 C-5.50590081 -0.70105423 -3.36736877 0.01474336 0 0 Z M15.37939453 17.14526367 C15.37939453 31.00526367 15.37939453 44.86526367 15.37939453 59.14526367 C19.31876953 59.35151367 23.25814453 59.55776367 27.31689453 59.77026367 C28.54013428 59.84067871 29.76337402 59.91109375 31.02368164 59.98364258 C39.45264952 60.37085107 47.17864727 60.30074659 54.25439453 55.20776367 C54.97369141 54.70374023 55.69298828 54.1997168 56.43408203 53.68041992 C57.07603516 53.17381836 57.71798828 52.6672168 58.37939453 52.14526367 C58.95044922 51.7559668 59.52150391 51.36666992 60.10986328 50.96557617 C62.22435031 47.93372708 61.86490382 44.52226282 61.81689453 40.95776367 C61.80932129 40.19052979 61.80174805 39.4232959 61.79394531 38.6328125 C61.62407502 32.81196528 60.93382171 28.9156791 57.37939453 24.14526367 C49.04925915 16.80681107 38.28429146 16.73065876 27.75439453 16.95776367 C23.67064453 17.01963867 19.58689453 17.08151367 15.37939453 17.14526367 Z " fill="#FF9250" transform="translate(641.62060546875,474.854736328125)" /><path d="M0 0 C2.9375 2.4375 2.9375 2.4375 5 5 C5.86625 5.9075 6.7325 6.815 7.625 7.75 C12.56863841 13.8284988 13.39945947 21.43318933 14 29 C8.18287315 32.10246766 1.82818136 31.52030876 -4.4609375 30.36328125 C-8.83641215 28.67780592 -10.83366029 26.48945221 -13.75 22.9375 C-17.20656536 18.59276893 -17.20656536 18.59276893 -22 16 C-33.45472367 15.22034893 -33.45472367 15.22034893 -44 19 C-45.2065625 19.556875 -45.2065625 19.556875 -46.4375 20.125 C-48.71361725 22.85634069 -48.43094494 25.17830472 -48.25 28.64453125 C-47.88714145 32.06333911 -47.41521522 34.84792973 -46 38 C-43.47020227 39.05075937 -43.47020227 39.05075937 -40 40 C-1.171094 53.08405316 -1.171094 53.08405316 9 64 C9.76570313 64.80630859 9.76570313 64.80630859 10.546875 65.62890625 C15.93669138 71.66973978 15.18269923 77.65536386 15.1875 85.375 C15.19974609 86.40367187 15.21199219 87.43234375 15.22460938 88.4921875 C15.24271294 97.85776332 13.63867271 102.96223404 7.1875 109.828125 C-3.03194188 119.97457087 -16.02040616 124.11329391 -30.3125 124.1875 C-43.92114332 124.12631154 -59.00814082 119.91129609 -68.9375 110.08203125 C-70.71946542 108.10330715 -72.40486939 106.13222522 -74 104 C-74.8353125 102.89591797 -74.8353125 102.89591797 -75.6875 101.76953125 C-77.44187932 98.06758203 -77.32695566 94.68880465 -77.1875 90.6875 C-77.17396484 89.94693359 -77.16042969 89.20636719 -77.14648438 88.44335938 C-77.11135979 86.62858925 -77.05755972 84.81419712 -77 83 C-73.58661 81.293305 -69.8254714 81.68942441 -66.0625 81.625 C-65.23814453 81.58761719 -64.41378906 81.55023437 -63.56445312 81.51171875 C-61.27611739 81.47825811 -59.23780998 81.5172955 -57 82 C-55.08203125 84.19921875 -55.08203125 84.19921875 -54 87 C-53.60039062 87.85980469 -53.20078125 88.71960938 -52.7890625 89.60546875 C-52.01096656 91.33137955 -51.24015808 93.06059374 -50.4765625 94.79296875 C-48.17240419 98.23701489 -45.25415 98.70139286 -41.375 99.625 C-29.68025627 100.92441597 -20.49792879 99.41301759 -11 92 C-8.78249092 90.4607536 -8.78249092 90.4607536 -8 88 C-8.92660386 81.91415735 -11.25181014 77.94729036 -16 74 C-18.81141355 72.60877385 -21.71511624 71.6165988 -24.6875 70.625 C-26.38973335 70.02459987 -28.09154629 69.42300671 -29.79296875 68.8203125 C-30.65712402 68.51899414 -31.5212793 68.21767578 -32.41162109 67.90722656 C-62.97596558 57.1944267 -62.97596558 57.1944267 -73 44 C-76.74709506 32.0903141 -73.85789129 19.43001286 -68.3125 8.75 C-51.17504678 -11.6296741 -22.11265475 -11.68019538 0 0 Z " fill="#FF9350" transform="translate(480,479)" /><path d="M0 0 C23.43 0 46.86 0 71 0 C71 0.33 71 0.66 71 1 C64.76973651 1.86916923 58.59663711 2.31096924 52.3125 2.5625 C50.74834351 2.62618774 50.74834351 2.62618774 49.15258789 2.69116211 C33.11055537 3.26191808 17.04931009 3.08490316 1 3 C0.67 2.01 0.34 1.02 0 0 Z " fill="#FFB07B" transform="translate(425,632)" /><path d="M0 0 C7.92 0.33 15.84 0.66 24 1 C24 1.33 24 1.66 24 2 C17.07 2 10.14 2 3 2 C3 15.2 3 28.4 3 42 C2.01 41.67 1.02 41.34 0 41 C0 27.47 0 13.94 0 0 Z " fill="#FF9C59" transform="translate(654,490)" /><path d="M0 0 C1.093125 0.00257813 2.18625 0.00515625 3.3125 0.0078125 C4.405625 0.00523437 5.49875 0.00265625 6.625 0 C9.3125 0.1328125 9.3125 0.1328125 10.3125 1.1328125 C10.4453125 2.9453125 10.4453125 2.9453125 10.4375 5.1328125 C10.44007813 5.8546875 10.44265625 6.5765625 10.4453125 7.3203125 C10.3125 9.1328125 10.3125 9.1328125 9.3125 10.1328125 C7.12610547 10.20540196 4.93749611 10.21655033 2.75 10.1953125 C0.95369141 10.18177734 0.95369141 10.18177734 -0.87890625 10.16796875 C-1.80574219 10.15636719 -2.73257812 10.14476562 -3.6875 10.1328125 C-3.71439216 8.65374358 -3.73384621 7.17453767 -3.75 5.6953125 C-3.76160156 4.87160156 -3.77320313 4.04789063 -3.78515625 3.19921875 C-3.63544062 0.03123594 -3.19553112 0.15791869 0 0 Z " fill="#FF9E63" transform="translate(316.6875,529.8671875)" /><path d="M0 0 C19.14 0 38.28 0 58 0 C58 0.66 58 1.32 58 2 C51.50809681 2.16964611 45.01600007 2.32925375 38.52368164 2.48217773 C36.31919891 2.5352531 34.11476844 2.59055102 31.91040039 2.64819336 C28.72553781 2.73107618 25.54056734 2.80572631 22.35546875 2.87890625 C20.89852852 2.91945885 20.89852852 2.91945885 19.41215515 2.96083069 C12.87411708 3.10058608 6.49866495 2.72208486 0 2 C0 1.34 0 0.68 0 0 Z " fill="#FFBB74" transform="translate(684,634)" /><path d="M0 0 C7.59 0.33 15.18 0.66 23 1 C23 1.33 23 1.66 23 2 C16.07 2 9.14 2 2 2 C2 9.59 2 17.18 2 25 C1.34 25 0.68 25 0 25 C0 16.75 0 8.5 0 0 Z " fill="#FFBE8D" transform="translate(655,490)" /><path d="M0 0 C2.64 0 5.28 0 8 0 C8 2.31 8 4.62 8 7 C4.7 7 1.4 7 -2 7 C-1.34 4.69 -0.68 2.38 0 0 Z " fill="#FF914D" transform="translate(316,533)" /><path d="M0 0 C5.28 0 10.56 0 16 0 C16 0.66 16 1.32 16 2 C21.94 2 27.88 2 34 2 C34 2.33 34 2.66 34 3 C29.4583875 3.05823729 24.9168716 3.09367675 20.375 3.125 C18.44720703 3.15013672 18.44720703 3.15013672 16.48046875 3.17578125 C15.23652344 3.18222656 13.99257813 3.18867187 12.7109375 3.1953125 C11.56931152 3.20578613 10.42768555 3.21625977 9.25146484 3.22705078 C5.86433183 2.99052625 3.15994958 2.2095701 0 1 C0 0.67 0 0.34 0 0 Z " fill="#FF8558" transform="translate(561,633)" /><path d="M0 0 C6.6 0 13.2 0 20 0 C20 0.66 20 1.32 20 2 C23.63 2 27.26 2 31 2 C31 2.33 31 2.66 31 3 C27.35418313 3.02887512 23.70839537 3.04675585 20.0625 3.0625 C19.02158203 3.07087891 17.98066406 3.07925781 16.90820312 3.08789062 C15.42416992 3.09272461 15.42416992 3.09272461 13.91015625 3.09765625 C12.53549194 3.10551147 12.53549194 3.10551147 11.13305664 3.11352539 C9 3 9 3 8 2 C6.65252916 1.76924918 5.29622435 1.58846937 3.9375 1.4375 C2.638125 1.293125 1.33875 1.14875 0 1 C0 0.67 0 0.34 0 0 Z " fill="#FF955F" transform="translate(664,634)" /><path d="M0 0 C2.04136395 -0.05451714 4.08315856 -0.09302485 6.125 -0.125 C7.83042969 -0.15980469 7.83042969 -0.15980469 9.5703125 -0.1953125 C13.05757767 0.00327891 15.7553862 0.7475199 19 2 C19 2.33 19 2.66 19 3 C15.37 3 11.74 3 8 3 C8 2.34 8 1.68 8 1 C5.36 1 2.72 1 0 1 C0 0.67 0 0.34 0 0 Z " fill="#FF9E56" transform="translate(548,633)" /><path d="M0 0 C0.99 0.33 1.98 0.66 3 1 C2.67 3.97 2.34 6.94 2 10 C1.34 10 0.68 10 0 10 C0 6.7 0 3.4 0 0 Z " fill="#FF9261" transform="translate(331,483)" /><path d="M0 0 C0.66 0 1.32 0 2 0 C2.96070434 2.88211302 3.10581883 4.69850044 3.0625 7.6875 C3.05347656 8.49574219 3.04445313 9.30398438 3.03515625 10.13671875 C3.02355469 10.75160156 3.01195312 11.36648438 3 12 C0.50494038 9.50494038 0.64051624 8.32671112 0.375 4.875 C0.30023437 3.96492187 0.22546875 3.05484375 0.1484375 2.1171875 C0.09945312 1.41851563 0.05046875 0.71984375 0 0 Z " fill="#FFA665" transform="translate(532,519)" /><path d="M0 0 C0.99 0.33 1.98 0.66 3 1 C3 3.64 3 6.28 3 9 C1.5 7.875 1.5 7.875 0 6 C-0.1875 2.8125 -0.1875 2.8125 0 0 Z " fill="#FF8F5D" transform="translate(428,501)" /><path d="M0 0 C0.33 0 0.66 0 1 0 C1 2.97 1 5.94 1 9 C0.01 9.33 -0.98 9.66 -2 10 C-2 8.35 -2 6.7 -2 5 C-1.34 5 -0.68 5 0 5 C0 3.35 0 1.7 0 0 Z " fill="#FF9B5F" transform="translate(531,589)" /></svg>