<?xml version="1.0" encoding="UTF-8"?>
<svg version="1.1" xmlns="http://www.w3.org/2000/svg" width="124" height="59">
<path d="M0 0 C6 0 6 0 7.81103516 1.64892578 C8.29878418 2.4067334 8.7865332 3.16454102 9.2890625 3.9453125 C10.11277344 5.19054687 10.11277344 5.19054687 10.953125 6.4609375 C11.50484375 7.34007812 12.0565625 8.21921875 12.625 9.125 C13.18445313 9.9809375 13.74390625 10.836875 14.3203125 11.71875 C15.37219616 13.3313075 16.41570092 14.94938627 17.44775391 16.57470703 C19.26086334 19.40758358 21.13431346 22.20147019 23 25 C23.33 16.75 23.66 8.5 24 0 C25.32 0 26.64 0 28 0 C28 11.55 28 23.1 28 35 C23 35 23 35 21.30249023 33.35107422 C20.80950439 32.5932666 20.31651855 31.83545898 19.80859375 31.0546875 C19.25623047 30.22453125 18.70386719 29.394375 18.13476562 28.5390625 C17.29461914 27.22035156 17.29461914 27.22035156 16.4375 25.875 C15.87353516 25.0190625 15.30957031 24.163125 14.72851562 23.28125 C13.66728234 21.66767892 12.61298645 20.04950719 11.56811523 18.42529297 C9.74033277 15.59839105 7.86730272 12.80095408 6 10 C5.67 18.25 5.34 26.5 5 35 C3.35 35 1.7 35 0 35 C0 23.45 0 11.9 0 0 Z " fill="#000000" transform="translate(58,11)"/>
<path d="M0 0 C17 0 17 0 22 3 C24.34027224 6.00892145 24.41229791 9.27463484 24.328125 13.02734375 C23.8079354 16.15467409 22.25878504 17.87408467 20 20 C19.34 20 18.68 20 18 20 C18.5053125 20.91523438 19.010625 21.83046875 19.53125 22.7734375 C20.18771927 23.97383845 20.8439573 25.17436587 21.5 26.375 C21.83386719 26.97828125 22.16773437 27.5815625 22.51171875 28.203125 C25 32.7734375 25 32.7734375 25 35 C23.02 35 21.04 35 19 35 C18.6596875 34.14535156 18.319375 33.29070313 17.96875 32.41015625 C15.59375117 26.15954742 15.59375117 26.15954742 10.8203125 21.98046875 C8.38973253 21.66145805 8.38973253 21.66145805 5 22 C5 26.29 5 30.58 5 35 C3.35 35 1.7 35 0 35 C0 23.45 0 11.9 0 0 Z M5 4 C5 8.29 5 12.58 5 17 C6.5675 17.061875 8.135 17.12375 9.75 17.1875 C10.63171875 17.22230469 11.5134375 17.25710937 12.421875 17.29296875 C15.50039296 16.94313716 16.80816743 16.16160039 19 14 C19.47350184 10.75313026 19.64576592 8.89177198 17.6875 6.1875 C14.78320998 4.14374036 12.24904977 3.88116312 8.8125 3.9375 C7.554375 3.958125 6.29625 3.97875 5 4 Z " fill="#000000" transform="translate(94,11)"/>
<path d="M0 0 C2.27883092 2.48599737 2.78592508 3.93110095 3.0625 7.25 C0.8125 7.5 0.8125 7.5 -1.9375 7.25 C-2.576875 6.59 -3.21625 5.93 -3.875 5.25 C-5.83138814 2.95021884 -5.83138814 2.95021884 -9 2.875 C-12.12292374 3.05232037 -12.12292374 3.05232037 -14.9375 5.25 C-15.07190778 7.67919865 -15.07190778 7.67919865 -13.9375 10.25 C-11.40460952 11.63432439 -8.67984971 12.37606438 -5.9375 13.25 C0.58161049 16.20205003 0.58161049 16.20205003 3.0625 19.25 C3.80904071 22.34033132 3.71613674 25.14522548 3.0625 28.25 C-0.07427085 32.11064104 -2.49994636 33.44862132 -7.375 34.25 C-12.03363662 34.52496169 -14.91056421 33.58562276 -18.9375 31.25 C-20.875 29.3125 -20.875 29.3125 -21.9375 27.25 C-21.9375 25.93 -21.9375 24.61 -21.9375 23.25 C-20.2875 23.25 -18.6375 23.25 -16.9375 23.25 C-16.64875 23.889375 -16.36 24.52875 -16.0625 25.1875 C-15.10926549 27.40206079 -15.10926549 27.40206079 -12.9375 28.25 C-7.79270422 28.77959708 -7.79270422 28.77959708 -3.5 26.25 C-2.984375 25.59 -2.46875 24.93 -1.9375 24.25 C-2.49604143 22.27023154 -2.49604143 22.27023154 -3.9375 20.25 C-6.88467718 18.81745174 -6.88467718 18.81745174 -10.3125 17.75 C-14.82673517 16.24185823 -17.95194291 15.05045553 -20.9375 11.25 C-21.53303827 7.15567442 -21.39115503 5.03517216 -19.3125 1.4375 C-13.56571564 -3.85559086 -6.50200511 -3.87353496 0 0 Z " fill="#000000" transform="translate(48.9375,12.75)"/>
<path d="M0 0 C1.65 0.33 3.3 0.66 5 1 C8.30519266 9.8827699 10.20602577 18.65385068 11.6875 28 C12.10696383 30.56268178 12.52748863 33.1251902 12.94921875 35.6875 C13.12799561 36.80511719 13.30677246 37.92273437 13.4909668 39.07421875 C13.65894775 40.03972656 13.82692871 41.00523438 14 42 C14.06292236 42.74894531 14.12584473 43.49789062 14.19067383 44.26953125 C14.89837071 46.27574941 14.89837071 46.27574941 17.45149231 47.08822632 C21.90253321 48.231902 26.00886486 48.3076824 30.58544922 48.31884766 C32.00590797 48.33391609 32.00590797 48.33391609 33.45506287 48.34928894 C36.57159849 48.38007262 39.68804838 48.3971428 42.8046875 48.4140625 C44.97088353 48.432778 47.13707231 48.4523517 49.30325317 48.4727478 C54.99462602 48.52403448 60.68602249 48.56367886 66.37750244 48.60089111 C72.18922758 48.64095239 78.00085473 48.69203507 83.8125 48.7421875 C95.20826446 48.83890583 106.6040843 48.92332381 118 49 C118 49.66 118 50.32 118 51 C105.04800738 51.06948838 92.09605905 51.12280549 79.14391804 51.15543652 C73.12981396 51.17109719 67.11583735 51.19234309 61.10180664 51.22631836 C55.29872063 51.25889704 49.49575729 51.27684999 43.6925869 51.28463173 C41.47778581 51.29017788 39.26299149 51.30100805 37.04824257 51.31719017 C33.94778521 51.33894427 30.84783576 51.34196772 27.74731445 51.34057617 C26.83021698 51.351362 25.91311951 51.36214783 24.9682312 51.3732605 C20.1745431 51.34995577 16.84959319 51.19412645 13 48 C9.2595 41.63938562 8.65755779 34.25056045 7.5 27.0625 C6.25993303 19.38608543 5.08591017 12.16756461 2 5 C1.34 5 0.68 5 0 5 C0 5.99 0 6.98 0 8 C-0.99 8 -1.98 8 -3 8 C-3 7.01 -3 6.02 -3 5 C-2.34 5 -1.68 5 -1 5 C-0.67 3.35 -0.34 1.7 0 0 Z " fill="#000000" transform="translate(6,8)"/>
<path d="M0 0 C0.99 0 1.98 0 3 0 C3 0.99 3 1.98 3 3 C2.01 3 1.02 3 0 3 C0 2.01 0 1.02 0 0 Z " fill="#000000" transform="translate(2,17)"/>
<path d="M0 0 C0.66 0 1.32 0 2 0 C2 0.99 2 1.98 2 3 C1.34 3 0.68 3 0 3 C0 2.01 0 1.02 0 0 Z " fill="#000000" transform="translate(0,43)"/>
<path d="M0 0 C0.99 0 1.98 0 3 0 C3 0.66 3 1.32 3 2 C2.01 2 1.02 2 0 2 C0 1.34 0 0.68 0 0 Z " fill="#000000" transform="translate(1,27)"/>
</svg>
